<mxfile host="app.diagrams.net" agent="Mozilla/5.0 (Windows NT 10.0; Win64; x64) AppleWebKit/537.36 (KHTML, like Gecko) Chrome/129.0.0.0 Safari/537.36" version="24.7.16">
  <diagram name="Page-1" id="BOtgPlQIAj3x72lid3il">
    <mxGraphModel dx="2835" dy="1957" grid="1" gridSize="12" guides="1" tooltips="1" connect="1" arrows="1" fold="1" page="1" pageScale="1" pageWidth="850" pageHeight="1100" background="#ffffff" math="0" shadow="0">
      <root>
        <mxCell id="0" />
        <mxCell id="1" parent="0" />
        <mxCell id="VBzlF1x02ojqIEc7ag2O-34" value="Start" style="whiteSpace=wrap;strokeWidth=2;fillColor=#dae8fc;strokeColor=#6c8ebf;" parent="1" vertex="1">
          <mxGeometry x="85" y="-108" width="96" height="49" as="geometry" />
        </mxCell>
        <mxCell id="7ElELpqfC7FE3C6jLTgq-94" style="edgeStyle=orthogonalEdgeStyle;rounded=0;orthogonalLoop=1;jettySize=auto;html=1;entryX=1;entryY=0.5;entryDx=0;entryDy=0;" parent="1" source="VBzlF1x02ojqIEc7ag2O-35" target="7ElELpqfC7FE3C6jLTgq-90" edge="1">
          <mxGeometry relative="1" as="geometry" />
        </mxCell>
        <mxCell id="7ElELpqfC7FE3C6jLTgq-95" style="edgeStyle=orthogonalEdgeStyle;rounded=0;orthogonalLoop=1;jettySize=auto;html=1;entryX=0;entryY=0.5;entryDx=0;entryDy=0;" parent="1" source="VBzlF1x02ojqIEc7ag2O-35" target="7ElELpqfC7FE3C6jLTgq-92" edge="1">
          <mxGeometry relative="1" as="geometry" />
        </mxCell>
        <mxCell id="VBzlF1x02ojqIEc7ag2O-35" value="Identified Use Case" style="whiteSpace=wrap;strokeWidth=2;fillColor=#d5e8d4;strokeColor=#82b366;fontStyle=1" parent="1" vertex="1">
          <mxGeometry x="46" y="630" width="184" height="48" as="geometry" />
        </mxCell>
        <mxCell id="VBzlF1x02ojqIEc7ag2O-50" value="" style="curved=1;startArrow=none;endArrow=block;exitX=0.5;exitY=1;rounded=0;" parent="1" source="VBzlF1x02ojqIEc7ag2O-34" edge="1">
          <mxGeometry relative="1" as="geometry">
            <Array as="points" />
            <mxPoint x="133" as="targetPoint" />
          </mxGeometry>
        </mxCell>
        <mxCell id="VBzlF1x02ojqIEc7ag2O-68" value="&lt;h1 style=&quot;margin-top: 0px;&quot;&gt;Use case lifecycle&lt;/h1&gt;&lt;p&gt;.&lt;/p&gt;" style="text;html=1;whiteSpace=wrap;overflow=hidden;rounded=0;" parent="1" vertex="1">
          <mxGeometry x="29" y="-179" width="264" height="120" as="geometry" />
        </mxCell>
        <mxCell id="VBzlF1x02ojqIEc7ag2O-72" value="Demand Manager" style="whiteSpace=wrap;strokeWidth=2;fillColor=#d5e8d4;strokeColor=#82b366;" parent="1" vertex="1">
          <mxGeometry x="24" y="331" width="264" height="60" as="geometry" />
        </mxCell>
        <mxCell id="VBzlF1x02ojqIEc7ag2O-74" value="&lt;div&gt;Priority&lt;/div&gt;" style="rhombus;whiteSpace=wrap;html=1;" parent="1" vertex="1">
          <mxGeometry x="288" y="488" width="83.25" height="124" as="geometry" />
        </mxCell>
        <mxCell id="VBzlF1x02ojqIEc7ag2O-76" value="Actor" style="shape=umlActor;verticalLabelPosition=bottom;verticalAlign=top;html=1;outlineConnect=0;" parent="1" vertex="1">
          <mxGeometry x="36" y="335" width="21.5" height="32" as="geometry" />
        </mxCell>
        <mxCell id="7ElELpqfC7FE3C6jLTgq-68" style="edgeStyle=orthogonalEdgeStyle;rounded=0;orthogonalLoop=1;jettySize=auto;html=1;exitX=0.5;exitY=1;exitDx=0;exitDy=0;" parent="1" edge="1">
          <mxGeometry relative="1" as="geometry">
            <mxPoint x="134.58" y="101" as="targetPoint" />
            <mxPoint x="152.00000000000045" y="53" as="sourcePoint" />
            <Array as="points">
              <mxPoint x="135" y="53" />
              <mxPoint x="135" y="77" />
            </Array>
          </mxGeometry>
        </mxCell>
        <mxCell id="T9CxsIawnJalEJ25gz9j-49" value="" style="edgeStyle=orthogonalEdgeStyle;rounded=0;orthogonalLoop=1;jettySize=auto;html=1;fillColor=#e51400;strokeColor=#B20000;" parent="1" edge="1">
          <mxGeometry relative="1" as="geometry">
            <mxPoint x="287.99999999999955" y="42.04761904761904" as="sourcePoint" />
            <mxPoint x="460" y="42" as="targetPoint" />
          </mxGeometry>
        </mxCell>
        <mxCell id="VBzlF1x02ojqIEc7ag2O-81" value="            Automation ambassdors / CAR /Requestors" style="whiteSpace=wrap;strokeWidth=2;fillColor=#d5e8d4;strokeColor=#82b366;" parent="1" vertex="1">
          <mxGeometry x="24" width="264" height="60" as="geometry" />
        </mxCell>
        <mxCell id="7ElELpqfC7FE3C6jLTgq-77" style="edgeStyle=orthogonalEdgeStyle;rounded=0;orthogonalLoop=1;jettySize=auto;html=1;" parent="1" source="VBzlF1x02ojqIEc7ag2O-93" edge="1">
          <mxGeometry relative="1" as="geometry">
            <mxPoint x="137" y="331" as="targetPoint" />
            <mxPoint x="137" y="302" as="sourcePoint" />
          </mxGeometry>
        </mxCell>
        <mxCell id="VBzlF1x02ojqIEc7ag2O-93" value="&lt;b&gt;Backlog&lt;/b&gt;" style="shape=cylinder3;whiteSpace=wrap;html=1;boundedLbl=1;backgroundOutline=1;size=15;fillColor=#f8cecc;strokeColor=#b85450;" parent="1" vertex="1">
          <mxGeometry x="95" y="200" width="84" height="95" as="geometry" />
        </mxCell>
        <mxCell id="7ElELpqfC7FE3C6jLTgq-1" style="edgeStyle=orthogonalEdgeStyle;rounded=0;orthogonalLoop=1;jettySize=auto;html=1;" parent="1" edge="1">
          <mxGeometry relative="1" as="geometry">
            <mxPoint x="287" y="550" as="targetPoint" />
            <mxPoint x="196" y="550" as="sourcePoint" />
          </mxGeometry>
        </mxCell>
        <mxCell id="7ElELpqfC7FE3C6jLTgq-84" style="edgeStyle=orthogonalEdgeStyle;rounded=0;orthogonalLoop=1;jettySize=auto;html=1;exitX=0.5;exitY=1;exitDx=0;exitDy=0;" parent="1" source="VBzlF1x02ojqIEc7ag2O-119" edge="1">
          <mxGeometry relative="1" as="geometry">
            <mxPoint x="137" y="631" as="targetPoint" />
            <mxPoint x="137" y="587" as="sourcePoint" />
          </mxGeometry>
        </mxCell>
        <mxCell id="VBzlF1x02ojqIEc7ag2O-119" value="&lt;div&gt;&lt;br&gt;&lt;/div&gt;Existing&lt;div&gt;ROI&lt;/div&gt;&lt;div&gt;Value tracking&lt;/div&gt;&lt;div&gt;&lt;br&gt;&lt;/div&gt;" style="shape=process;whiteSpace=wrap;html=1;backgroundOutline=1;" parent="1" vertex="1">
          <mxGeometry x="53" y="520" width="168" height="60" as="geometry" />
        </mxCell>
        <mxCell id="7ElELpqfC7FE3C6jLTgq-96" style="edgeStyle=orthogonalEdgeStyle;rounded=0;orthogonalLoop=1;jettySize=auto;html=1;entryX=0;entryY=0.5;entryDx=0;entryDy=0;" parent="1" source="7ElELpqfC7FE3C6jLTgq-5" target="7ElELpqfC7FE3C6jLTgq-12" edge="1">
          <mxGeometry relative="1" as="geometry">
            <mxPoint x="286" y="1126" as="targetPoint" />
          </mxGeometry>
        </mxCell>
        <mxCell id="7ElELpqfC7FE3C6jLTgq-5" value="&lt;br&gt;&lt;div&gt;&lt;br&gt;&lt;/div&gt;&lt;div&gt;Define Automation Goals&lt;br&gt;&lt;/div&gt;&lt;div&gt;Select Automation Tools&lt;br&gt;&lt;/div&gt;&lt;div&gt;Select capability&lt;/div&gt;&lt;div&gt;Design Automation Workflow&lt;br&gt;&lt;/div&gt;&lt;div&gt;&lt;br&gt;&lt;/div&gt;" style="shape=process;whiteSpace=wrap;html=1;backgroundOutline=1;" parent="1" vertex="1">
          <mxGeometry x="42.88" y="1090" width="197.12" height="124" as="geometry" />
        </mxCell>
        <mxCell id="7ElELpqfC7FE3C6jLTgq-8" value="" style="endArrow=classic;startArrow=classic;html=1;rounded=0;entryX=0;entryY=0.6;entryDx=0;entryDy=0;entryPerimeter=0;exitX=0;exitY=0.5;exitDx=0;exitDy=0;" parent="1" source="7ElELpqfC7FE3C6jLTgq-90" target="VBzlF1x02ojqIEc7ag2O-81" edge="1">
          <mxGeometry width="50" height="50" relative="1" as="geometry">
            <mxPoint x="48" y="1008" as="sourcePoint" />
            <mxPoint x="-61.5" y="120" as="targetPoint" />
            <Array as="points">
              <mxPoint x="-228" y="768" />
              <mxPoint x="-228" y="708" />
              <mxPoint x="-228" y="528" />
              <mxPoint x="-228" y="264" />
              <mxPoint x="-228" y="36" />
              <mxPoint x="-96" y="36" />
            </Array>
          </mxGeometry>
        </mxCell>
        <mxCell id="7ElELpqfC7FE3C6jLTgq-103" style="edgeStyle=orthogonalEdgeStyle;rounded=0;orthogonalLoop=1;jettySize=auto;html=1;entryX=0;entryY=0.5;entryDx=0;entryDy=0;" parent="1" target="7ElELpqfC7FE3C6jLTgq-36" edge="1">
          <mxGeometry relative="1" as="geometry">
            <mxPoint x="595.25" y="1151.5" as="targetPoint" />
            <mxPoint x="456.75" y="1151.5" as="sourcePoint" />
          </mxGeometry>
        </mxCell>
        <mxCell id="7ElELpqfC7FE3C6jLTgq-12" value="&lt;div&gt;Tools /&amp;nbsp;&lt;/div&gt;&lt;div&gt;Capability&lt;/div&gt;" style="rhombus;whiteSpace=wrap;html=1;" parent="1" vertex="1">
          <mxGeometry x="353.5" y="1086" width="108.5" height="132" as="geometry" />
        </mxCell>
        <mxCell id="7ElELpqfC7FE3C6jLTgq-16" value="Procurement" style="text;html=1;align=center;verticalAlign=middle;whiteSpace=wrap;rounded=0;" parent="1" vertex="1">
          <mxGeometry x="534" y="1098" width="86.5" height="30" as="geometry" />
        </mxCell>
        <mxCell id="T9CxsIawnJalEJ25gz9j-97" value="" style="edgeStyle=orthogonalEdgeStyle;rounded=0;orthogonalLoop=1;jettySize=auto;html=1;" parent="1" source="7ElELpqfC7FE3C6jLTgq-36" target="T9CxsIawnJalEJ25gz9j-37" edge="1">
          <mxGeometry relative="1" as="geometry" />
        </mxCell>
        <mxCell id="7ElELpqfC7FE3C6jLTgq-36" value="Procurement" style="whiteSpace=wrap;strokeWidth=2;fillColor=#d5e8d4;strokeColor=#82b366;fontStyle=1" parent="1" vertex="1">
          <mxGeometry x="622.5" y="1080" width="192" height="48" as="geometry" />
        </mxCell>
        <mxCell id="7ElELpqfC7FE3C6jLTgq-40" value="NO /&amp;nbsp;&amp;nbsp;" style="text;html=1;align=center;verticalAlign=middle;whiteSpace=wrap;rounded=0;" parent="1" vertex="1">
          <mxGeometry x="462" y="1128" width="72" height="32" as="geometry" />
        </mxCell>
        <mxCell id="7ElELpqfC7FE3C6jLTgq-46" value="YES" style="text;html=1;align=center;verticalAlign=middle;whiteSpace=wrap;rounded=0;rotation=-90;" parent="1" vertex="1">
          <mxGeometry x="373" y="1227" width="60" height="30" as="geometry" />
        </mxCell>
        <mxCell id="7ElELpqfC7FE3C6jLTgq-106" style="edgeStyle=orthogonalEdgeStyle;rounded=0;orthogonalLoop=1;jettySize=auto;html=1;" parent="1" edge="1">
          <mxGeometry relative="1" as="geometry">
            <mxPoint x="134" y="1511" as="targetPoint" />
            <mxPoint x="134" y="1438.9999999999995" as="sourcePoint" />
          </mxGeometry>
        </mxCell>
        <mxCell id="7ElELpqfC7FE3C6jLTgq-47" value="Project Manager" style="whiteSpace=wrap;strokeWidth=2;fillColor=#d5e8d4;strokeColor=#82b366;" parent="1" vertex="1">
          <mxGeometry x="26" y="1387" width="236" height="60" as="geometry" />
        </mxCell>
        <mxCell id="7ElELpqfC7FE3C6jLTgq-108" style="edgeStyle=orthogonalEdgeStyle;rounded=0;orthogonalLoop=1;jettySize=auto;html=1;" parent="1" source="7ElELpqfC7FE3C6jLTgq-59" edge="1">
          <mxGeometry relative="1" as="geometry">
            <mxPoint x="137" y="214" as="targetPoint" />
            <mxPoint x="137" y="172" as="sourcePoint" />
          </mxGeometry>
        </mxCell>
        <mxCell id="7ElELpqfC7FE3C6jLTgq-59" value="Form" style="html=1;whiteSpace=wrap;strokeColor=none;fillColor=#0079D6;labelPosition=center;verticalLabelPosition=middle;verticalAlign=top;align=center;fontSize=12;outlineConnect=0;spacingTop=-6;fontColor=#FFFFFF;sketch=0;shape=mxgraph.sitemap.form;" parent="1" vertex="1">
          <mxGeometry x="77" y="100" width="120" height="70" as="geometry" />
        </mxCell>
        <mxCell id="7ElELpqfC7FE3C6jLTgq-110" style="edgeStyle=orthogonalEdgeStyle;rounded=0;orthogonalLoop=1;jettySize=auto;html=1;" parent="1" edge="1">
          <mxGeometry relative="1" as="geometry">
            <mxPoint x="140.5" y="520" as="targetPoint" />
            <mxPoint x="140.5" y="482" as="sourcePoint" />
          </mxGeometry>
        </mxCell>
        <mxCell id="7ElELpqfC7FE3C6jLTgq-78" value="Identify Use Case" style="whiteSpace=wrap;strokeWidth=2;fillColor=#d5e8d4;strokeColor=#82b366;fontStyle=1" parent="1" vertex="1">
          <mxGeometry x="53" y="439" width="184" height="49" as="geometry" />
        </mxCell>
        <mxCell id="7ElELpqfC7FE3C6jLTgq-82" style="edgeStyle=orthogonalEdgeStyle;rounded=0;orthogonalLoop=1;jettySize=auto;html=1;entryX=0.552;entryY=0.061;entryDx=0;entryDy=0;entryPerimeter=0;" parent="1" edge="1">
          <mxGeometry relative="1" as="geometry">
            <mxPoint x="139.00000000000045" y="390" as="sourcePoint" />
            <mxPoint x="139.0680000000002" y="437.98900000000003" as="targetPoint" />
          </mxGeometry>
        </mxCell>
        <mxCell id="7ElELpqfC7FE3C6jLTgq-101" style="edgeStyle=orthogonalEdgeStyle;rounded=0;orthogonalLoop=1;jettySize=auto;html=1;" parent="1" edge="1">
          <mxGeometry relative="1" as="geometry">
            <mxPoint x="-41" y="804" as="sourcePoint" />
            <mxPoint x="127" y="976" as="targetPoint" />
            <Array as="points">
              <mxPoint x="-41" y="916" />
              <mxPoint x="127" y="916" />
            </Array>
          </mxGeometry>
        </mxCell>
        <mxCell id="7ElELpqfC7FE3C6jLTgq-90" value="Solution Designer" style="whiteSpace=wrap;strokeWidth=2;fillColor=#d5e8d4;strokeColor=#43ac06;" parent="1" vertex="1">
          <mxGeometry x="-159" y="738" width="236" height="62" as="geometry" />
        </mxCell>
        <mxCell id="7ElELpqfC7FE3C6jLTgq-100" style="edgeStyle=orthogonalEdgeStyle;rounded=0;orthogonalLoop=1;jettySize=auto;html=1;entryX=0.602;entryY=0.056;entryDx=0;entryDy=0;entryPerimeter=0;" parent="1" edge="1">
          <mxGeometry relative="1" as="geometry">
            <mxPoint x="144.01600000000008" y="976.0320000000002" as="targetPoint" />
            <mxPoint x="314" y="800.0000000000005" as="sourcePoint" />
            <Array as="points">
              <mxPoint x="314" y="912" />
              <mxPoint x="145" y="912" />
            </Array>
          </mxGeometry>
        </mxCell>
        <mxCell id="T9CxsIawnJalEJ25gz9j-47" value="" style="edgeStyle=orthogonalEdgeStyle;rounded=0;orthogonalLoop=1;jettySize=auto;html=1;entryX=1;entryY=0.5;entryDx=0;entryDy=0;fillColor=#e51400;strokeColor=#B20000;" parent="1" edge="1">
          <mxGeometry relative="1" as="geometry">
            <mxPoint x="432" y="780.5238095238092" as="sourcePoint" />
            <mxPoint x="287.99999999999955" y="42" as="targetPoint" />
            <Array as="points">
              <mxPoint x="576" y="781" />
              <mxPoint x="576" y="42" />
            </Array>
          </mxGeometry>
        </mxCell>
        <mxCell id="7ElELpqfC7FE3C6jLTgq-92" value="Automation SME" style="whiteSpace=wrap;strokeWidth=2;fillColor=#d5e8d4;strokeColor=#82b366;" parent="1" vertex="1">
          <mxGeometry x="196" y="738" width="236" height="61" as="geometry" />
        </mxCell>
        <mxCell id="7ElELpqfC7FE3C6jLTgq-105" value="Resource&lt;div&gt;Budget&lt;/div&gt;&lt;div&gt;org goal alignment&lt;/div&gt;" style="shape=process;whiteSpace=wrap;html=1;backgroundOutline=1;" parent="1" vertex="1">
          <mxGeometry x="35.88" y="1632" width="197.12" height="108" as="geometry" />
        </mxCell>
        <mxCell id="T9CxsIawnJalEJ25gz9j-1" value="Actor" style="shape=umlActor;verticalLabelPosition=bottom;verticalAlign=top;html=1;outlineConnect=0;" parent="1" vertex="1">
          <mxGeometry x="-145" y="741.5" width="21.5" height="32" as="geometry" />
        </mxCell>
        <mxCell id="T9CxsIawnJalEJ25gz9j-3" value="Actor" style="shape=umlActor;verticalLabelPosition=bottom;verticalAlign=top;html=1;outlineConnect=0;" parent="1" vertex="1">
          <mxGeometry x="215.5" y="744" width="21.5" height="32" as="geometry" />
        </mxCell>
        <mxCell id="T9CxsIawnJalEJ25gz9j-4" value="Actor" style="shape=umlActor;verticalLabelPosition=bottom;verticalAlign=top;html=1;outlineConnect=0;" parent="1" vertex="1">
          <mxGeometry x="31.5" y="5" width="21.5" height="32" as="geometry" />
        </mxCell>
        <mxCell id="T9CxsIawnJalEJ25gz9j-11" value="Actor" style="shape=umlActor;verticalLabelPosition=bottom;verticalAlign=top;html=1;outlineConnect=0;" parent="1" vertex="1">
          <mxGeometry x="37.5" y="1390" width="21.5" height="32" as="geometry" />
        </mxCell>
        <mxCell id="T9CxsIawnJalEJ25gz9j-12" value="" style="endArrow=classic;html=1;rounded=0;entryX=0.445;entryY=0;entryDx=0;entryDy=0;entryPerimeter=0;" parent="1" edge="1">
          <mxGeometry width="50" height="50" relative="1" as="geometry">
            <mxPoint x="408" y="1219" as="sourcePoint" />
            <mxPoint x="132.01999999999998" y="1387" as="targetPoint" />
            <Array as="points">
              <mxPoint x="408" y="1264" />
              <mxPoint x="252" y="1263" />
              <mxPoint x="132" y="1264" />
              <mxPoint x="132" y="1303" />
              <mxPoint x="132" y="1339" />
            </Array>
          </mxGeometry>
        </mxCell>
        <mxCell id="T9CxsIawnJalEJ25gz9j-19" style="edgeStyle=orthogonalEdgeStyle;rounded=0;orthogonalLoop=1;jettySize=auto;html=1;exitX=0.464;exitY=0.875;exitDx=0;exitDy=0;exitPerimeter=0;" parent="1" source="T9CxsIawnJalEJ25gz9j-18" edge="1">
          <mxGeometry relative="1" as="geometry">
            <mxPoint x="138" y="1091" as="targetPoint" />
            <mxPoint x="138" y="1037" as="sourcePoint" />
          </mxGeometry>
        </mxCell>
        <mxCell id="T9CxsIawnJalEJ25gz9j-18" value="Technical Feasibility" style="whiteSpace=wrap;strokeWidth=2;fillColor=#d5e8d4;strokeColor=#82b366;fontStyle=1" parent="1" vertex="1">
          <mxGeometry x="49" y="978" width="192" height="48" as="geometry" />
        </mxCell>
        <mxCell id="T9CxsIawnJalEJ25gz9j-21" style="edgeStyle=orthogonalEdgeStyle;rounded=0;orthogonalLoop=1;jettySize=auto;html=1;exitX=0.5;exitY=1;exitDx=0;exitDy=0;" parent="1" edge="1">
          <mxGeometry relative="1" as="geometry">
            <mxPoint x="135" y="1631" as="targetPoint" />
            <mxPoint x="135" y="1562" as="sourcePoint" />
          </mxGeometry>
        </mxCell>
        <mxCell id="T9CxsIawnJalEJ25gz9j-20" value="Delivery Feasibility" style="whiteSpace=wrap;strokeWidth=2;fillColor=#d5e8d4;strokeColor=#82b366;fontStyle=1" parent="1" vertex="1">
          <mxGeometry x="24" y="1514" width="240" height="48" as="geometry" />
        </mxCell>
        <mxCell id="T9CxsIawnJalEJ25gz9j-33" style="edgeStyle=orthogonalEdgeStyle;rounded=0;orthogonalLoop=1;jettySize=auto;html=1;" parent="1" edge="1">
          <mxGeometry relative="1" as="geometry">
            <mxPoint x="135" y="2028" as="targetPoint" />
            <mxPoint x="135.19999999999982" y="1872" as="sourcePoint" />
          </mxGeometry>
        </mxCell>
        <mxCell id="T9CxsIawnJalEJ25gz9j-66" value="" style="edgeStyle=orthogonalEdgeStyle;rounded=0;orthogonalLoop=1;jettySize=auto;html=1;fillColor=#e3c800;strokeColor=#B09500;" parent="1" source="T9CxsIawnJalEJ25gz9j-23" target="T9CxsIawnJalEJ25gz9j-61" edge="1">
          <mxGeometry relative="1" as="geometry" />
        </mxCell>
        <mxCell id="T9CxsIawnJalEJ25gz9j-23" value="COE Team" style="whiteSpace=wrap;strokeWidth=2;fillColor=#d5e8d4;strokeColor=#82b366;" parent="1" vertex="1">
          <mxGeometry x="404.75" y="1807" width="247.56" height="60" as="geometry" />
        </mxCell>
        <mxCell id="T9CxsIawnJalEJ25gz9j-25" value="Actor" style="shape=umlActor;verticalLabelPosition=bottom;verticalAlign=top;html=1;outlineConnect=0;fillColor=#e3c800;fontColor=#000000;strokeColor=#B09500;" parent="1" vertex="1">
          <mxGeometry x="406.99999999999994" y="1810" width="23" height="24" as="geometry" />
        </mxCell>
        <mxCell id="T9CxsIawnJalEJ25gz9j-26" value="Actor" style="shape=umlActor;verticalLabelPosition=bottom;verticalAlign=top;html=1;fillColor=#6d8764;fontColor=#ffffff;strokeColor=#3A5431;" parent="1" vertex="1">
          <mxGeometry x="460" y="1812" width="18" height="24" as="geometry" />
        </mxCell>
        <mxCell id="T9CxsIawnJalEJ25gz9j-27" value="Actor" style="shape=umlActor;verticalLabelPosition=bottom;verticalAlign=top;html=1;fillColor=#a0522d;fontColor=#ffffff;strokeColor=#6D1F00;" parent="1" vertex="1">
          <mxGeometry x="434.99999999999994" y="1820" width="18" height="24" as="geometry" />
        </mxCell>
        <mxCell id="8MgPHaHCAEOFsjv-dGPS-1" style="edgeStyle=orthogonalEdgeStyle;rounded=0;orthogonalLoop=1;jettySize=auto;html=1;" edge="1" parent="1" source="T9CxsIawnJalEJ25gz9j-32">
          <mxGeometry relative="1" as="geometry">
            <mxPoint x="139.7800000000002" y="2400" as="targetPoint" />
          </mxGeometry>
        </mxCell>
        <mxCell id="T9CxsIawnJalEJ25gz9j-32" value="Develop &amp; Build Automation" style="whiteSpace=wrap;strokeWidth=2;fillColor=#d5e8d4;strokeColor=#82b366;fontStyle=1" parent="1" vertex="1">
          <mxGeometry x="43.78" y="2292" width="192" height="48" as="geometry" />
        </mxCell>
        <mxCell id="T9CxsIawnJalEJ25gz9j-107" value="" style="edgeStyle=orthogonalEdgeStyle;rounded=0;orthogonalLoop=1;jettySize=auto;html=1;exitX=0.525;exitY=0.991;exitDx=0;exitDy=0;exitPerimeter=0;" parent="1" edge="1" source="T9CxsIawnJalEJ25gz9j-34">
          <mxGeometry relative="1" as="geometry">
            <mxPoint x="137.73238095238074" y="2515.999999999999" as="sourcePoint" />
            <mxPoint x="137.78" y="2610" as="targetPoint" />
          </mxGeometry>
        </mxCell>
        <mxCell id="8MgPHaHCAEOFsjv-dGPS-3" value="" style="edgeStyle=orthogonalEdgeStyle;rounded=0;orthogonalLoop=1;jettySize=auto;html=1;" edge="1" parent="1" source="T9CxsIawnJalEJ25gz9j-34" target="8MgPHaHCAEOFsjv-dGPS-2">
          <mxGeometry relative="1" as="geometry" />
        </mxCell>
        <mxCell id="T9CxsIawnJalEJ25gz9j-34" value="Pilot the Automation&lt;div&gt;Deploy Automation&lt;br&gt;&lt;/div&gt;&lt;div&gt;Monitor &amp;amp; Optimize&lt;span style=&quot;white-space: pre;&quot;&gt;&#x9;&lt;/span&gt;&lt;br&gt;&lt;/div&gt;&lt;div&gt;Scale Automation&lt;br&gt;&lt;/div&gt;&lt;div&gt;Document &amp;amp; Train&lt;br&gt;&lt;/div&gt;" style="shape=process;whiteSpace=wrap;html=1;backgroundOutline=1;" parent="1" vertex="1">
          <mxGeometry x="34.220000000000006" y="2401" width="197.12" height="108" as="geometry" />
        </mxCell>
        <mxCell id="T9CxsIawnJalEJ25gz9j-65" value="" style="edgeStyle=orthogonalEdgeStyle;rounded=0;orthogonalLoop=1;jettySize=auto;html=1;fillColor=#e3c800;strokeColor=#B09500;" parent="1" source="T9CxsIawnJalEJ25gz9j-36" target="T9CxsIawnJalEJ25gz9j-61" edge="1">
          <mxGeometry relative="1" as="geometry" />
        </mxCell>
        <mxCell id="T9CxsIawnJalEJ25gz9j-36" value="CA Team" style="whiteSpace=wrap;strokeWidth=2;fillColor=#d5e8d4;strokeColor=#82b366;" parent="1" vertex="1">
          <mxGeometry x="16.439999999999998" y="1807" width="247.56" height="60" as="geometry" />
        </mxCell>
        <mxCell id="T9CxsIawnJalEJ25gz9j-111" value="" style="edgeStyle=orthogonalEdgeStyle;rounded=0;orthogonalLoop=1;jettySize=auto;html=1;" parent="1" source="T9CxsIawnJalEJ25gz9j-37" target="T9CxsIawnJalEJ25gz9j-110" edge="1">
          <mxGeometry relative="1" as="geometry" />
        </mxCell>
        <mxCell id="T9CxsIawnJalEJ25gz9j-112" style="edgeStyle=orthogonalEdgeStyle;rounded=0;orthogonalLoop=1;jettySize=auto;html=1;entryX=1;entryY=0.5;entryDx=0;entryDy=0;" parent="1" source="T9CxsIawnJalEJ25gz9j-37" target="7ElELpqfC7FE3C6jLTgq-47" edge="1">
          <mxGeometry relative="1" as="geometry">
            <Array as="points">
              <mxPoint x="934" y="1417" />
            </Array>
          </mxGeometry>
        </mxCell>
        <mxCell id="T9CxsIawnJalEJ25gz9j-113" style="edgeStyle=orthogonalEdgeStyle;rounded=0;orthogonalLoop=1;jettySize=auto;html=1;entryX=1;entryY=0.25;entryDx=0;entryDy=0;exitX=0.5;exitY=0;exitDx=0;exitDy=0;" parent="1" edge="1">
          <mxGeometry relative="1" as="geometry">
            <mxPoint x="933.75" y="1036" as="sourcePoint" />
            <mxPoint x="287.99999999999955" y="13" as="targetPoint" />
            <Array as="points">
              <mxPoint x="934" y="13" />
            </Array>
          </mxGeometry>
        </mxCell>
        <mxCell id="T9CxsIawnJalEJ25gz9j-37" value="New Tool" style="rhombus;whiteSpace=wrap;html=1;" parent="1" vertex="1">
          <mxGeometry x="873.75" y="1038" width="120" height="132" as="geometry" />
        </mxCell>
        <mxCell id="T9CxsIawnJalEJ25gz9j-38" value="" style="endArrow=classic;startArrow=classic;html=1;rounded=0;" parent="1" edge="1">
          <mxGeometry width="50" height="50" relative="1" as="geometry">
            <mxPoint x="372" y="552" as="sourcePoint" />
            <mxPoint x="180" y="240" as="targetPoint" />
            <Array as="points">
              <mxPoint x="396" y="552" />
              <mxPoint x="396" y="240" />
            </Array>
          </mxGeometry>
        </mxCell>
        <mxCell id="T9CxsIawnJalEJ25gz9j-43" style="edgeStyle=orthogonalEdgeStyle;rounded=0;orthogonalLoop=1;jettySize=auto;html=1;entryX=1;entryY=0.25;entryDx=0;entryDy=0;fillColor=#e51400;strokeColor=#B20000;" parent="1" source="T9CxsIawnJalEJ25gz9j-40" target="7ElELpqfC7FE3C6jLTgq-92" edge="1">
          <mxGeometry relative="1" as="geometry" />
        </mxCell>
        <mxCell id="T9CxsIawnJalEJ25gz9j-40" value="&lt;div&gt;&lt;br&gt;&lt;/div&gt;Existing use case&lt;div&gt;&lt;br&gt;&lt;/div&gt;" style="shape=process;whiteSpace=wrap;html=1;backgroundOutline=1;" parent="1" vertex="1">
          <mxGeometry x="392.75" y="624" width="168" height="48" as="geometry" />
        </mxCell>
        <mxCell id="T9CxsIawnJalEJ25gz9j-41" style="edgeStyle=orthogonalEdgeStyle;rounded=0;orthogonalLoop=1;jettySize=auto;html=1;entryX=0.011;entryY=0.632;entryDx=0;entryDy=0;entryPerimeter=0;fillColor=#e51400;strokeColor=#B20000;" parent="1" source="VBzlF1x02ojqIEc7ag2O-35" target="T9CxsIawnJalEJ25gz9j-40" edge="1">
          <mxGeometry relative="1" as="geometry" />
        </mxCell>
        <mxCell id="T9CxsIawnJalEJ25gz9j-50" value="" style="points=[[0.145,0.145,0],[0.5,0,0],[0.855,0.145,0],[1,0.5,0],[0.855,0.855,0],[0.5,1,0],[0.145,0.855,0],[0,0.5,0]];shape=mxgraph.bpmn.event;html=1;verticalLabelPosition=bottom;labelBackgroundColor=#ffffff;verticalAlign=top;align=center;perimeter=ellipsePerimeter;outlineConnect=0;aspect=fixed;outline=end;symbol=terminate2;fillColor=#e51400;fontColor=#ffffff;strokeColor=#B20000;" parent="1" vertex="1">
          <mxGeometry x="463" y="16" width="50" height="50" as="geometry" />
        </mxCell>
        <mxCell id="T9CxsIawnJalEJ25gz9j-52" value="End" style="text;html=1;align=center;verticalAlign=middle;whiteSpace=wrap;rounded=0;" parent="1" vertex="1">
          <mxGeometry x="456" y="31" width="60" height="25" as="geometry" />
        </mxCell>
        <mxCell id="T9CxsIawnJalEJ25gz9j-55" style="edgeStyle=orthogonalEdgeStyle;rounded=0;orthogonalLoop=1;jettySize=auto;html=1;entryX=0.475;entryY=0.006;entryDx=0;entryDy=0;entryPerimeter=0;" parent="1" source="7ElELpqfC7FE3C6jLTgq-105" target="T9CxsIawnJalEJ25gz9j-36" edge="1">
          <mxGeometry relative="1" as="geometry" />
        </mxCell>
        <mxCell id="T9CxsIawnJalEJ25gz9j-61" value="Actor" style="shape=umlActor;verticalLabelPosition=bottom;verticalAlign=top;html=1;outlineConnect=0;fillColor=#e3c800;fontColor=#000000;strokeColor=#B09500;" parent="1" vertex="1">
          <mxGeometry x="320.63" y="1813" width="18" height="48" as="geometry" />
        </mxCell>
        <mxCell id="T9CxsIawnJalEJ25gz9j-69" value="Actor" style="shape=umlActor;verticalLabelPosition=bottom;verticalAlign=top;html=1;outlineConnect=0;fillColor=#e3c800;fontColor=#000000;strokeColor=#B09500;" parent="1" vertex="1">
          <mxGeometry x="196.99999999999994" y="1812" width="23" height="24" as="geometry" />
        </mxCell>
        <mxCell id="T9CxsIawnJalEJ25gz9j-70" value="Actor" style="shape=umlActor;verticalLabelPosition=bottom;verticalAlign=top;html=1;fillColor=#e3c800;fontColor=#000000;strokeColor=#B09500;" parent="1" vertex="1">
          <mxGeometry x="223.99999999999994" y="1822" width="18" height="24" as="geometry" />
        </mxCell>
        <mxCell id="T9CxsIawnJalEJ25gz9j-71" value="Supporting" style="shape=callout;whiteSpace=wrap;html=1;perimeter=calloutPerimeter;" parent="1" vertex="1">
          <mxGeometry x="288" y="1764" width="89" height="48" as="geometry" />
        </mxCell>
        <mxCell id="T9CxsIawnJalEJ25gz9j-72" value="New capability" style="whiteSpace=wrap;strokeWidth=2;fillColor=#d5e8d4;strokeColor=#82b366;fontStyle=1" parent="1" vertex="1">
          <mxGeometry x="620.5" y="1170" width="192" height="48" as="geometry" />
        </mxCell>
        <mxCell id="T9CxsIawnJalEJ25gz9j-76" style="edgeStyle=orthogonalEdgeStyle;rounded=0;orthogonalLoop=1;jettySize=auto;html=1;entryX=0;entryY=0.625;entryDx=0;entryDy=0;entryPerimeter=0;exitX=1;exitY=0.75;exitDx=0;exitDy=0;" parent="1" edge="1">
          <mxGeometry relative="1" as="geometry">
            <mxPoint x="618" y="1200" as="targetPoint" />
            <mxPoint x="540" y="1152" as="sourcePoint" />
            <Array as="points">
              <mxPoint x="540" y="1200" />
            </Array>
          </mxGeometry>
        </mxCell>
        <mxCell id="T9CxsIawnJalEJ25gz9j-77" value="Capability" style="text;html=1;align=center;verticalAlign=middle;whiteSpace=wrap;rounded=0;" parent="1" vertex="1">
          <mxGeometry x="540" y="1176" width="60" height="30" as="geometry" />
        </mxCell>
        <mxCell id="T9CxsIawnJalEJ25gz9j-80" value="" style="edgeStyle=entityRelationEdgeStyle;fontSize=12;html=1;endArrow=ERoneToMany;rounded=0;exitX=0.456;exitY=1.014;exitDx=0;exitDy=0;exitPerimeter=0;entryX=0.98;entryY=0.179;entryDx=0;entryDy=0;entryPerimeter=0;" parent="1" source="T9CxsIawnJalEJ25gz9j-72" target="T9CxsIawnJalEJ25gz9j-81" edge="1">
          <mxGeometry width="100" height="100" relative="1" as="geometry">
            <mxPoint x="420" y="1300" as="sourcePoint" />
            <mxPoint x="684" y="1320" as="targetPoint" />
            <Array as="points">
              <mxPoint x="708" y="1248" />
              <mxPoint x="708" y="1248" />
            </Array>
          </mxGeometry>
        </mxCell>
        <mxCell id="T9CxsIawnJalEJ25gz9j-81" value="Capability" style="swimlane;fontStyle=0;childLayout=stackLayout;horizontal=1;startSize=26;fillColor=none;horizontalStack=0;resizeParent=1;resizeParentMax=0;resizeLast=0;collapsible=1;marginBottom=0;whiteSpace=wrap;html=1;" parent="1" vertex="1">
          <mxGeometry x="444.53" y="1272" width="168" height="104" as="geometry" />
        </mxCell>
        <mxCell id="T9CxsIawnJalEJ25gz9j-82" value="Business unit onboarding" style="text;strokeColor=none;fillColor=none;align=left;verticalAlign=top;spacingLeft=4;spacingRight=4;overflow=hidden;rotatable=0;points=[[0,0.5],[1,0.5]];portConstraint=eastwest;whiteSpace=wrap;html=1;" parent="T9CxsIawnJalEJ25gz9j-81" vertex="1">
          <mxGeometry y="26" width="168" height="26" as="geometry" />
        </mxCell>
        <mxCell id="T9CxsIawnJalEJ25gz9j-83" value="New software feature" style="text;strokeColor=none;fillColor=none;align=left;verticalAlign=top;spacingLeft=4;spacingRight=4;overflow=hidden;rotatable=0;points=[[0,0.5],[1,0.5]];portConstraint=eastwest;whiteSpace=wrap;html=1;" parent="T9CxsIawnJalEJ25gz9j-81" vertex="1">
          <mxGeometry y="52" width="168" height="26" as="geometry" />
        </mxCell>
        <mxCell id="T9CxsIawnJalEJ25gz9j-84" value="Software version upgrade&lt;div&gt;&lt;br&gt;&lt;/div&gt;" style="text;strokeColor=none;fillColor=none;align=left;verticalAlign=top;spacingLeft=4;spacingRight=4;overflow=hidden;rotatable=0;points=[[0,0.5],[1,0.5]];portConstraint=eastwest;whiteSpace=wrap;html=1;" parent="T9CxsIawnJalEJ25gz9j-81" vertex="1">
          <mxGeometry y="78" width="168" height="26" as="geometry" />
        </mxCell>
        <mxCell id="T9CxsIawnJalEJ25gz9j-90" value="Requestors" style="text;html=1;align=center;verticalAlign=middle;whiteSpace=wrap;rounded=0;rotation=90;" parent="1" vertex="1">
          <mxGeometry x="552.75" y="445.75" width="73.5" height="30" as="geometry" />
        </mxCell>
        <mxCell id="T9CxsIawnJalEJ25gz9j-91" value="CAR" style="text;html=1;align=center;verticalAlign=middle;whiteSpace=wrap;rounded=0;rotation=90;" parent="1" vertex="1">
          <mxGeometry x="912" y="448.5" width="73.5" height="30" as="geometry" />
        </mxCell>
        <mxCell id="T9CxsIawnJalEJ25gz9j-104" style="edgeStyle=orthogonalEdgeStyle;rounded=0;orthogonalLoop=1;jettySize=auto;html=1;" parent="1" edge="1">
          <mxGeometry relative="1" as="geometry">
            <mxPoint x="136.74" y="2291.9999999999995" as="targetPoint" />
            <mxPoint x="136.74" y="2195.9999999999995" as="sourcePoint" />
          </mxGeometry>
        </mxCell>
        <mxCell id="T9CxsIawnJalEJ25gz9j-94" value="&lt;div style=&quot;font-size: 19px;&quot;&gt;&lt;b style=&quot;&quot;&gt;&lt;u style=&quot;&quot;&gt;&lt;font style=&quot;font-size: 19px;&quot;&gt;&lt;br&gt;&lt;/font&gt;&lt;/u&gt;&lt;/b&gt;&lt;/div&gt;&lt;b style=&quot;font-size: 19px;&quot;&gt;&lt;u style=&quot;&quot;&gt;&lt;font style=&quot;font-size: 19px;&quot;&gt;&lt;div style=&quot;&quot;&gt;&lt;b&gt;&lt;u&gt;&lt;br&gt;&lt;/u&gt;&lt;/b&gt;&lt;/div&gt;Onboarding to SWAT&lt;/font&gt;&lt;/u&gt;&lt;/b&gt;" style="shape=process;whiteSpace=wrap;html=1;backgroundOutline=1;" parent="1" vertex="1">
          <mxGeometry x="-48" y="2035" width="408" height="165" as="geometry" />
        </mxCell>
        <mxCell id="T9CxsIawnJalEJ25gz9j-98" value="Network&lt;br&gt;access&lt;div&gt;&lt;br/&gt;&lt;/div&gt;" style="sketch=0;outlineConnect=0;fontColor=#232F3E;gradientColor=none;strokeColor=#232F3E;fillColor=#ffffff;dashed=0;verticalLabelPosition=bottom;verticalAlign=top;align=center;html=1;fontSize=12;fontStyle=0;aspect=fixed;shape=mxgraph.aws4.resourceIcon;resIcon=mxgraph.aws4.network_access_control_list;" parent="1" vertex="1">
          <mxGeometry x="104.44" y="1908" width="60" height="60" as="geometry" />
        </mxCell>
        <mxCell id="T9CxsIawnJalEJ25gz9j-99" value="Gitalab" style="shape=image;html=1;verticalAlign=top;verticalLabelPosition=bottom;labelBackgroundColor=#ffffff;imageAspect=0;aspect=fixed;image=https://cdn4.iconfinder.com/data/icons/socialcones/508/Gitlab-128.png" parent="1" vertex="1">
          <mxGeometry x="252" y="2044" width="55" height="55" as="geometry" />
        </mxCell>
        <mxCell id="T9CxsIawnJalEJ25gz9j-102" value="Marvin" style="shape=image;html=1;verticalAlign=top;verticalLabelPosition=bottom;labelBackgroundColor=#ffffff;imageAspect=0;aspect=fixed;image=https://cdn1.iconfinder.com/data/icons/DarkGlass_Reworked/128x128/apps/kcron.png" parent="1" vertex="1">
          <mxGeometry x="133" y="2041.41" width="56" height="56" as="geometry" />
        </mxCell>
        <mxCell id="T9CxsIawnJalEJ25gz9j-103" value="" style="shape=image;verticalLabelPosition=bottom;labelBackgroundColor=default;verticalAlign=top;aspect=fixed;imageAspect=0;image=data:image/png,iVBORw0KGgoAAAANSUhEUgAAASsAAACoCAMAAACPKThEAAAAzFBMVEX////MAAAAAADJAADNAAD09PR6enr6+vqioqKnp6fPz8/f39/QAABGRkadnZ3Dw8M7OzvW1tYUFBS9vb2Wlpbm5ubt7e1NTU1nZ2dWVla1tbU9PT321dX+9/f87+/lior64+OBgYFycnIvLy8jIyONjY2AgIDnk5PSJiZra2snJyf0zMztrKzwuLjWQUEVFRXcXFzifHxfX1/QHh7YTk7gbG3pnZ3ywsL43d3wtLTZNjbYSkrrpqbkhYXVOzvhd3fbWVnfZ2fWJSTVFhbtTysUAAAQWklEQVR4nO2dCXuiOhSGEUQUF9ytuJS6tLU6XWxtO22nm///P00SlpwEFwhWxfo997lVQQZek5OzJCBJRx111FFHHXXUUUcdddRRRx111FFHxVHd9nhycXo3+7r9/Lz9mv27ePwztjq7Pqt9U/f577/Py2Qyl2CVTCbn718XT0ditjrji9v7ZGKVlNzLbPK86xPdtazJV2I1J0+5l7vx721e3ckn3+lWK3n5Md71Se9CnfEsHChH3xfWrk99y+pM3gN2Pb9ys9/UuLoXc1FQtl7/7PoStqTIpJCS17+BVucxOilC6/Xge+Kfl42Qwsp9Wbu+mp/U862wRV9I6+JwHa5HIS9hld4PtCNaDxttVLZyp9qur+sH9LbxRmXr/eACxc7HDzQqW7m/u764zep5c8OfX8m7Q+qHT5vxqZbqobvrK9yYNj/+8fo+FKN1+mOmimp+GM7Dx8+TQso97fo6N6DZVlAdxHD4tSVUCFbcUw/balUEVrxb1nZslQcrzjbrdKuoEKz2rq9YWJMtOAus5taur1lQT1tHlUi8xDOjZf1wYLNYX7u+bBF1IoTLCvlPTBe7vnABiQ+ByvVbu/33QZBWLn7Rzl9hY6Xc2Uc4FYR1H7ekgyWcWlA+3WN8CsKKm8l6EEWVULw+NBY9xGSXVx5ab8KoEu/0KK+Ch8hZO7vw8BLvgQnljR5mIjoYxqkX3gqjYixzR9hDi09gOBZ32N1B0NadaMOKjfuuRSnaMInzZ2HocfFIJxFQvbKHEnUbErl4NKxOhKqNwuU2n4RDnbvFJ7dnehRHlbjkmkPnUvRIsfAbxAcv1Kx8ZubioBtWlGaVtPijWcKscjEIC6M0qwU+5EwY1un2rz2k/kRJhi5IpwgHhYm5bygspTNElaz93sy4SuuSVLdfmrrKfquCNpfQXw3vV5e8r5IPpXo6Q49Sl2oZM/hEFNEYDuvaO0rX8l5eCx/OF0IPZVcNQqvlvZeHkqS7rwdD5nLz6KMCpoK36fZnWfx6il/pMlBJq/aG6aCo2hGaFQgF32beS+GgMPHCn1wVXFYNvW8wrEr0XbEOvoX3SnOsht4xWFa1Sr6aCdqw7sRRQWv8Ovded4UNYJKvgBFW5TK5rLNVrOTRGlZ9slfax0oamgUzIKpOlGZFR/k2bGP/NuY2VAkjTU3hpuNQMNU6luqw0rNmEf/NrmTlAMqjl6qu6xX8poJeaJJm6AFRRStz0WaAYmZqu56FD8hb96rTnvClXjkUKioBJTmsVMcWZVhWVbRXlrI6l+WbFmlHRDW3Q4bSlzgp5cE7SvcepkelT+FjcqkZp11pZ06bcPtgj7KqOx+fsaw8EVbqlSy30nbPFWa1oVAQm3Plw3v7R7gTfrCnh1nd9PsDfGmF5axG3kdLWOE+18OA+po4qyhdEISCxO+g1l08KJyzQxIYBxsaoDBiWZ2sYzXFfZf4EoY4qwjTYkAo2LY/ePQ+EA4KuZGQskppLoWhaZo6y6pFe5e717RQLQxdVgTNSaroIRVi9S3OCoSCTjaUukfWhlJ+mNXUyHstqeEZa4+VOx6Cgd8dB1WXVYY2s3JdlNVzhJIEDQWxZScfUesuHBReM+dn23bD60uEQknHyjqMKkb1hrtyn88AO6UpyipCQlShQ5brqCvUdx8Ld0LGa3B8Btywmi4FR1PWFwXDoI8V8R2a0+a0LztxjgirCBMeQQPwAkDQLd9FWTFeg8OKNCyDZXXCsDqBYwLPCtutFt5AXNCsICvh8Qq66W2vDQHr/ibasBiDha8yhf5iq9yXmNh5CqKVPBul4L1A7KwN3HZHPqhKTksLx6or7AclFBoKgjrXJT30veCBH+AJZisGScegv0YFNR3d8IQ8cJW80EswbsZCe1UwCA1vVsmfSt3bortbwq0JEveuQCgIqQAjJlopvFx0onugCNlj6gfBFAwYHJ9FZ2NZOwARQOLp3k96ECa1B6y7aA4x0sw17ccW2wlnMEEo2GZ4A2deNCj0zy+q9XrAK5fqvV6FvsuMvKSoOeqXy1dTL22cGdnePvq+rVTVc2SNUY8zc6VRj2qENlbSYMjQhIfBe/rzcXaJBomi00//+VgV2EEry7ztufFwlg6SVfuTFPHqWT+slfWOCTJehJ4MVZP0wqhKfxPhiUQKrbjw4x2w7oJB4UzihV1RkJ7CrGgaNCUXCZk6cjQbmYpZyHueaUouu6waoxOkJtp0VV/Oqkn2wprWJdNs6DQTLxzhAKvEJ9eVW4pR7OC+pDtikyfZK8DKyRcAVkOPp37VV3lWTgPRUm6QvZBVCb5XzyrntJs+CaKCVUG/yaMcv4Qa1pxnVZWvDNjrCKuiawVcVi254e5Qr7mbPFae5emTXPQSVmw2WSuBWtpfUVZ0qGr7cID+KVYp5CfMaEU5pZWJu+2xOqc5GIeVeiOf85AXsUrJN2pAVoxEI2fQSz78TQekAIWCQoUr1ZdwhzuxAzqXlXHiXarDCgUy059kdSGGCk4QXWC/gT8hFhRa7FkO5YGGo17PmGBWKPhtMKykJrBhK1gV7YRFaFaCC+Dm8If/k/Tx+PQ2dkViKH46yQBHz2qZJj6z2FRXXVPusqpQX2EBK3fwH7ov19t2VmJlVHaCqGS9+GDRWZEiQWGSvRuBbv/cPVLzoqy0vJ0+9liRnER5CAEAVqMq1rDoDZYLWZ2lkQoLW5dgyZkrDnd4m6VQb7Id/fjnchn/AZ2QsMIAegwryRzY+RmvcQFW1E2VVrCy5RsjxFm9+o7Dh+BgFrfIeiYmIFQH9rmjTuimPm1WuB0ZDCtJM7EfKg9c4wRY5adNpEZZlvul5az6LaR+VVogIVb8BFGs8T0bFNKQTiQoZNqVZ3FRJ9QYVmqRRDeAFd42HDjpQZaV4dJ046Ot2Ct+gihR95VhQvN1nfApP7bs1SP5UInYLYNhhS+uyrNCCKtOVnShbcdfOl/KasU4+E8AlX+CqMMdwlLo5YYPCplxUEO+QbqAVfXKpS4rHBtnfawI1YG6jBUKLsn+W/GvrCUHg44tGCqt0P8Aw6rCBP8ay6o+QM6SnxW2ZKWlrJAzWhdgJbC2C4aCd2wTe76kTQhY99BBIeO3I/+8VbTVd6/YY4VJVs78rCrOVW+SlUA8CFIu3Xtlxtiu7i0t6FDrHrpSCOPBOo77NCI8Eo44VtJUbvX8rMxV7aop1gcF8gxgreBESSjXFnNAGgiA6mHYoBDmGUw4NqWcAjtgVSvLZTcn0/ASKM0V9kp3RsmwrMLnr2AoiBeyKtxdrLzCELDuYYNCWMhpOhkU92JMjhWZqUBYVbBfRaCpXhLCx0pTKwOHflhWAnlRaktcl/yROeTzu00GTMYKGxTSZCEuDwPHUL2y417ICteYCas6njY06A2HvRtn/hHDqp/HapU9fwKxauU9qTarovdBi3dIQzs/MBR0nQTlgzFaHac2BALsBXmbVQL59jT746dsP5JhlfXmn5l9d7hMOTm63qJ8u+OkVZkBti7x+fYUxyp8fon2LLqIR3m1mIPaEQ+s4Yf7N0A3rxQy8MjZQgGjU9MFQNDwphFrxrBZbE3pRqNgz8aup12Z3rZSIQ2Ed6vBTwp8fif0eA5CQZBnV+5Zo2VHPCAhGG6J/p6u5g3pjCrg1l7s9b8xh7VwxAMSzX/D/CT7WncOOZ8BhIJcv1Lu2CgRGTMwGSvU6qj7PV2fGm79Gqg6+JJ4Cndz1QlyJyzvXZibp/hSPr6quxZoMhDZSQ89h325wq0Gsbzv+f0A3mi1L8FkrDDTR/mFcSazfETCI19h/YVpU+xe6H6fXlxhbssAqqSLlyexExG6D9/0TfBBJMmb9qmTK/ZkyBlprep43p9Uyw/X7hlYYSYVAWO9eGTjEvHSP3rZIYJCruJVkxs2myyZu1iT1IxczWJ6JUPHjSZbUiuGKpUq5J2UNQy0o6bLzSzqf2RHSTeIq16q1e2viCnMgjgQCi7xmJRb9kLBu8CzTPgKfVrWi6S61Rqg/+X7ZCII8uZxtV3GIWBDxhMZcGFiqjlL3wq295lHoFHrqjdt11IdXCGXPs+tywyuEMvCYSi4rDyjfC+7rWPgoJCfJVOU0fXjJtW6slmVUvIoraMPp2YKl0+b8kjHsxSMJvbmjaFRKcq1elVupU2b1VQ+N5uILgqRzo0TeWE2PZC+ArNK0lbSWbHXkrszBV5TyM1Uy8pnqJEMKSsNGWzUJ7XyjYQxZBGrulQvFyVnNxVz0iXVtldoXCjhV+rVlaoOkKGvO6VUEQW+mRoIhlcuPFWWLPAOGBTykxmGsq5pxSvIith20mKkDGpKTVlDKBo2VrtIiFjVScUes6oQczeSs9oAYdJu8r5TC6pu4FQD6F0rYxblc+GtA/yTRBaKW5ev9eUbvCxV97MaQVYDh5UpTyuow/0Mq8BL/cBU6jWxsPKy0GgFmz7KFdR0udHr9U6wac7LGJ3LSpMHhECJZXWOExEmYUX7YA9/cYD6YFRWAfPIsCq4tjslF90SOlClkO+CPbuY15JV1LuGpaFM7FVKL6G3PX2IjQ9gdY5GzbOSOcD2qlzUDbv1IbuunyBbFp1VwE4IFtcGMdMLCmOBkmXc/EfVKQ5WZTSmXZGaMjLPNzg/quLcXrGGfQacis/brFS8vKSIu+wJXoVSwz2xVrT9CRXPrNHA3KTwCrQkB1YFg9xSgPe0sAIEhUluFFSdeE7Fq7o006yXyGrADF5CIekZsvKhRtZV4O1k/YSRyar43hZ4b+SS4o2akSHJ4WzN2VNYgSbfwZpdoGyU4n9gUIBK4Tf/nX1TgKnVsCoYMMup+AK7AEHhI/+VfVOAiiqoCoaYUsUbrbUltv2/UVGApfQgSAtxUw+u1LreunOL6PdRa6dCit5BlDdaa1ysfc0eQ611G+AMg1ArkpQ5Y7TWLP+55U9sH7WmYcFQMPSkRmC01hRVc7F4atW6hgViltCTZUGpdc1UrJjc5nd17euT7ihwuybPaK2JpuJgrbBWj1Cfp55E1t0r8wur02mvu8NIHO4CSbT6N1eoBFjhJ1HMlXWPo5jvvW/lSfweextSjO523/7xhzOu1vX6U9wfbfvhVKxi9qiqn3yW7FrF5YbkjnbZC/3LVvZcgqsJN6B4eOyMIjxzIpIWpuf3XOL3UI2mGKRi/BrvxGTFzljZetvB8wdj+7DG7XtZMfOsoLb5FF6sZJwfWyx+e14hVDEKA/3qRLn1fWhUe1/kWq2O6B0cfx8qvHZ5W6hiFgUu0pa6YfxbFVZnG6NhzJ9FTxXlIRQBUe3pEiUBvf1wuPMSv9TCcj39aCC9eE5pbGWJP5h3nXIHMAByOv2hfjg/HFNFNY7w1IClSn4dVv9z1b3beJJmfiiugl/jzZZ3krPDbFSOHjc3ICavI90XOgayPjbUEeexTsAElDXbwIh4/7ini743rXZUWvPHgzZUrKxTcbuVvP4NvQ+qO3kXMly52aFb9IV6Pr0MiSv3MPlFnY9T+/QlqOlK5j7frF2f745l/Z1dJpIrJzUmE7nr06ff26IYWU+nt5e5RS0smZu/z97Gv8RBCKzu89Pk9GP28PI9R7p8v53dPU7G1hHTUUcF0X8hPGkCTEtL3gAAAABJRU5ErkJggg==;" parent="1" vertex="1">
          <mxGeometry x="-3" y="2041.41" width="102.5" height="57.59" as="geometry" />
        </mxCell>
        <mxCell id="T9CxsIawnJalEJ25gz9j-106" value="" style="ellipse;whiteSpace=wrap;html=1;fillColor=#e51400;fontColor=#ffffff;strokeColor=#B20000;" parent="1" vertex="1">
          <mxGeometry x="97.22" y="2611" width="80" height="80" as="geometry" />
        </mxCell>
        <mxCell id="T9CxsIawnJalEJ25gz9j-108" value="END" style="text;html=1;align=center;verticalAlign=middle;whiteSpace=wrap;rounded=0;" parent="1" vertex="1">
          <mxGeometry x="106" y="2636" width="60" height="30" as="geometry" />
        </mxCell>
        <mxCell id="T9CxsIawnJalEJ25gz9j-110" value="&lt;div&gt;Research Potential Tools&lt;br&gt;&lt;/div&gt;&lt;div&gt;Evaluate Proposals&lt;br&gt;&lt;/div&gt;&lt;div&gt;Vendor Selection&lt;br&gt;&lt;/div&gt;&lt;div&gt;Approval and Procurement&lt;br&gt;&lt;/div&gt;&lt;div&gt;Implementation Planning&lt;br&gt;&lt;/div&gt;&lt;div&gt;Deploy the Tool&lt;br&gt;&lt;/div&gt;" style="shape=process;whiteSpace=wrap;html=1;backgroundOutline=1;" parent="1" vertex="1">
          <mxGeometry x="1056" y="1042" width="197.12" height="124" as="geometry" />
        </mxCell>
        <mxCell id="8MgPHaHCAEOFsjv-dGPS-5" value="" style="edgeStyle=orthogonalEdgeStyle;rounded=0;orthogonalLoop=1;jettySize=auto;html=1;" edge="1" parent="1" source="8MgPHaHCAEOFsjv-dGPS-2">
          <mxGeometry relative="1" as="geometry">
            <mxPoint x="555" y="2455" as="targetPoint" />
          </mxGeometry>
        </mxCell>
        <mxCell id="8MgPHaHCAEOFsjv-dGPS-2" value="Document the process" style="shape=document;whiteSpace=wrap;html=1;boundedLbl=1;" vertex="1" parent="1">
          <mxGeometry x="333" y="2415" width="120" height="80" as="geometry" />
        </mxCell>
        <mxCell id="8MgPHaHCAEOFsjv-dGPS-8" value="Document Manager" style="text;html=1;align=center;verticalAlign=middle;whiteSpace=wrap;rounded=0;" vertex="1" parent="1">
          <mxGeometry x="487.25" y="2484" width="180" height="30" as="geometry" />
        </mxCell>
        <mxCell id="8MgPHaHCAEOFsjv-dGPS-9" value="" style="html=1;outlineConnect=0;whiteSpace=wrap;fillColor=#ffff99;verticalLabelPosition=bottom;verticalAlign=top;align=center;shape=mxgraph.archimate3.actor;" vertex="1" parent="1">
          <mxGeometry x="560.75" y="2430" width="26.5" height="50" as="geometry" />
        </mxCell>
      </root>
    </mxGraphModel>
  </diagram>
</mxfile>
